<mxfile host="app.diagrams.net" agent="Mozilla/5.0 (Macintosh; Intel Mac OS X 10_15_7) AppleWebKit/537.36 (KHTML, like Gecko) Chrome/136.0.0.0 Safari/537.36 Edg/136.0.0.0" version="28.0.4">
  <diagram name="第 1 页" id="6TzRKWbmLFOBuiEK5ZTx">
    <mxGraphModel dx="2440" dy="1127" grid="1" gridSize="10" guides="1" tooltips="1" connect="1" arrows="1" fold="1" page="1" pageScale="1" pageWidth="583" pageHeight="413" math="0" shadow="0">
      <root>
        <mxCell id="0" />
        <mxCell id="1" parent="0" />
        <mxCell id="n8bRiYM0ABgJThSap8u7-13" value="" style="rounded=1;whiteSpace=wrap;html=1;arcSize=10;strokeColor=#CC6600;strokeWidth=4;" vertex="1" parent="1">
          <mxGeometry x="80" y="940" width="1130" height="420" as="geometry" />
        </mxCell>
        <mxCell id="n8bRiYM0ABgJThSap8u7-8" value="" style="rounded=1;whiteSpace=wrap;html=1;fillColor=#FF6666;strokeColor=#FF6666;fontColor=#000000;fillStyle=auto;" vertex="1" parent="1">
          <mxGeometry x="1070" y="847" width="140" height="81" as="geometry" />
        </mxCell>
        <mxCell id="n8bRiYM0ABgJThSap8u7-5" value="&lt;div style=&quot;&quot;&gt;&lt;font face=&quot;Garamond&quot; style=&quot;color: rgb(255, 255, 255); font-size: 28px;&quot;&gt;&lt;font style=&quot;background-color: transparent;&quot;&gt;&lt;b style=&quot;&quot;&gt;&amp;nbsp; &amp;nbsp; &amp;nbsp; &amp;nbsp; &amp;nbsp; &amp;nbsp; &amp;nbsp; &amp;nbsp; &amp;nbsp; &amp;nbsp; &amp;nbsp;OpenCL&amp;nbsp; &amp;nbsp; &amp;nbsp; &amp;nbsp; &amp;nbsp; &amp;nbsp;&amp;nbsp;&lt;/b&gt;&lt;/font&gt;&lt;font style=&quot;background-color: transparent;&quot;&gt;&lt;b&gt;OpenVX&lt;span style=&quot;white-space: pre;&quot;&gt;&#x9;&lt;/span&gt;&amp;nbsp; &amp;nbsp; &amp;nbsp;&lt;/b&gt;&lt;/font&gt;&lt;font style=&quot;background-color: transparent;&quot;&gt;&lt;b style=&quot;&quot;&gt;android NN&lt;span style=&quot;white-space: pre;&quot;&gt;&#x9;&lt;/span&gt;&lt;span style=&quot;white-space: pre;&quot;&gt;&#x9;&amp;nbsp;&lt;/span&gt;&amp;nbsp; &amp;nbsp;ONNX&lt;/b&gt;&lt;/font&gt;&lt;/font&gt;&lt;/div&gt;" style="rounded=1;whiteSpace=wrap;html=1;fillColor=#FF6666;strokeColor=#FF6666;fontColor=#000000;fillStyle=auto;align=left;" vertex="1" parent="1">
          <mxGeometry x="80" y="868" width="1130" height="60" as="geometry" />
        </mxCell>
        <mxCell id="n8bRiYM0ABgJThSap8u7-7" value="" style="rounded=1;whiteSpace=wrap;html=1;fillColor=#FF6666;strokeColor=#FF6666;fontColor=#000000;fillStyle=auto;" vertex="1" parent="1">
          <mxGeometry x="1080" y="800" width="130" height="90" as="geometry" />
        </mxCell>
        <mxCell id="n8bRiYM0ABgJThSap8u7-6" value="" style="rounded=1;whiteSpace=wrap;html=1;strokeColor=#FFFFFF;" vertex="1" parent="1">
          <mxGeometry x="80" y="800" width="1000" height="70" as="geometry" />
        </mxCell>
        <mxCell id="n8bRiYM0ABgJThSap8u7-2" value="&lt;font face=&quot;Garamond&quot; style=&quot;font-size: 28px;&quot;&gt;&lt;b style=&quot;&quot;&gt;Applications&lt;/b&gt;&lt;/font&gt;" style="rounded=1;whiteSpace=wrap;html=1;strokeColor=light-dark(#FF3333,#EDEDED);strokeWidth=3;" vertex="1" parent="1">
          <mxGeometry x="80" y="730" width="1130" height="60" as="geometry" />
        </mxCell>
        <mxCell id="n8bRiYM0ABgJThSap8u7-3" value="&lt;font face=&quot;Garamond&quot; style=&quot;color: rgb(255, 255, 255); font-size: 28px;&quot;&gt;&lt;b style=&quot;&quot;&gt;OpenCV&lt;/b&gt;&lt;/font&gt;" style="rounded=1;whiteSpace=wrap;html=1;fillColor=#FF3333;strokeColor=#FF6666;fontColor=#000000;fillStyle=auto;" vertex="1" parent="1">
          <mxGeometry x="80" y="800" width="140" height="60" as="geometry" />
        </mxCell>
        <mxCell id="n8bRiYM0ABgJThSap8u7-4" value="&lt;font face=&quot;Garamond&quot; style=&quot;font-size: 28px;&quot;&gt;&lt;b style=&quot;&quot;&gt;TensorFlow Pytorch Caffe TFLite ONNX Darknet Theano&lt;/b&gt;&lt;/font&gt;" style="rounded=1;whiteSpace=wrap;html=1;fillColor=#FF3333;fontColor=#ffffff;strokeColor=light-dark(#6d8764, #9db395);" vertex="1" parent="1">
          <mxGeometry x="230" y="800" width="840" height="60" as="geometry" />
        </mxCell>
        <mxCell id="n8bRiYM0ABgJThSap8u7-10" value="&lt;font face=&quot;Garamond&quot; style=&quot;font-size: 26px;&quot;&gt;&lt;b&gt;应用&lt;/b&gt;&lt;/font&gt;" style="text;html=1;align=center;verticalAlign=middle;resizable=0;points=[];autosize=1;strokeColor=none;fillColor=none;" vertex="1" parent="1">
          <mxGeometry y="733" width="80" height="40" as="geometry" />
        </mxCell>
        <mxCell id="n8bRiYM0ABgJThSap8u7-11" value="&lt;font face=&quot;Garamond&quot; style=&quot;font-size: 26px;&quot;&gt;&lt;b&gt;框架&lt;/b&gt;&lt;/font&gt;" style="text;html=1;align=center;verticalAlign=middle;resizable=0;points=[];autosize=1;strokeColor=none;fillColor=none;" vertex="1" parent="1">
          <mxGeometry y="810" width="80" height="40" as="geometry" />
        </mxCell>
        <mxCell id="n8bRiYM0ABgJThSap8u7-12" value="&lt;font face=&quot;Garamond&quot; style=&quot;font-size: 26px;&quot;&gt;&lt;b&gt;API&lt;/b&gt;&lt;/font&gt;" style="text;html=1;align=center;verticalAlign=middle;resizable=0;points=[];autosize=1;strokeColor=none;fillColor=none;" vertex="1" parent="1">
          <mxGeometry x="10" y="878" width="60" height="40" as="geometry" />
        </mxCell>
        <mxCell id="n8bRiYM0ABgJThSap8u7-14" value="&lt;font face=&quot;Garamond&quot; style=&quot;font-size: 26px;&quot;&gt;&lt;b&gt;NPU&lt;/b&gt;&lt;/font&gt;" style="text;html=1;align=center;verticalAlign=middle;resizable=0;points=[];autosize=1;strokeColor=none;fillColor=none;" vertex="1" parent="1">
          <mxGeometry y="1135" width="80" height="40" as="geometry" />
        </mxCell>
        <mxCell id="n8bRiYM0ABgJThSap8u7-15" value="" style="rounded=1;whiteSpace=wrap;html=1;strokeColor=#00CC00;strokeWidth=3;" vertex="1" parent="1">
          <mxGeometry x="100" y="960" width="1090" height="270" as="geometry" />
        </mxCell>
        <mxCell id="n8bRiYM0ABgJThSap8u7-16" value="&lt;font style=&quot;font-size: 30px;&quot; face=&quot;Garamond&quot;&gt;&lt;b&gt;神经网络引擎&lt;/b&gt;&lt;/font&gt;" style="text;html=1;align=center;verticalAlign=middle;whiteSpace=wrap;rounded=0;" vertex="1" parent="1">
          <mxGeometry x="120" y="980" width="200" height="30" as="geometry" />
        </mxCell>
        <mxCell id="n8bRiYM0ABgJThSap8u7-17" value="&lt;font face=&quot;Garamond&quot; style=&quot;font-size: 40px; color: rgb(255, 255, 255);&quot;&gt;&lt;b&gt;Data&amp;nbsp; Storage&amp;nbsp; and&amp;nbsp; Cache&lt;/b&gt;&lt;/font&gt;" style="rounded=1;whiteSpace=wrap;html=1;fillColor=#CC99FF;" vertex="1" parent="1">
          <mxGeometry x="100" y="1250" width="1090" height="80" as="geometry" />
        </mxCell>
        <mxCell id="n8bRiYM0ABgJThSap8u7-29" value="&lt;font style=&quot;font-size: 28px; color: rgb(255, 255, 255);&quot;&gt;NN&lt;/font&gt;" style="rounded=1;whiteSpace=wrap;html=1;fillColor=light-dark(#00de6f, #a95100);strokeColor=#005700;fontColor=#ffffff;" vertex="1" parent="1">
          <mxGeometry x="130" y="1030" width="160" height="80" as="geometry" />
        </mxCell>
        <mxCell id="n8bRiYM0ABgJThSap8u7-30" value="&lt;font style=&quot;font-size: 28px; color: rgb(255, 255, 255);&quot;&gt;NN&lt;/font&gt;" style="rounded=1;whiteSpace=wrap;html=1;fillColor=light-dark(#00de6f, #a95100);strokeColor=#005700;fontColor=#ffffff;" vertex="1" parent="1">
          <mxGeometry x="130" y="1130" width="160" height="80" as="geometry" />
        </mxCell>
        <mxCell id="n8bRiYM0ABgJThSap8u7-31" value="&lt;font style=&quot;font-size: 28px; color: rgb(255, 255, 255);&quot;&gt;NN&lt;/font&gt;" style="rounded=1;whiteSpace=wrap;html=1;fillColor=light-dark(#00de6f, #a95100);strokeColor=#005700;fontColor=#ffffff;" vertex="1" parent="1">
          <mxGeometry x="360" y="1030" width="160" height="80" as="geometry" />
        </mxCell>
        <mxCell id="n8bRiYM0ABgJThSap8u7-32" value="&lt;font style=&quot;font-size: 28px; color: rgb(255, 255, 255);&quot;&gt;NN&lt;/font&gt;" style="rounded=1;whiteSpace=wrap;html=1;fillColor=light-dark(#00de6f, #a95100);strokeColor=#005700;fontColor=#ffffff;" vertex="1" parent="1">
          <mxGeometry x="360" y="1130" width="160" height="80" as="geometry" />
        </mxCell>
        <mxCell id="n8bRiYM0ABgJThSap8u7-33" value="&lt;font style=&quot;font-size: 28px; color: rgb(255, 255, 255);&quot;&gt;NN&lt;/font&gt;" style="rounded=1;whiteSpace=wrap;html=1;fillColor=light-dark(#00de6f, #a95100);strokeColor=#005700;fontColor=#ffffff;" vertex="1" parent="1">
          <mxGeometry x="590" y="1030" width="160" height="80" as="geometry" />
        </mxCell>
        <mxCell id="n8bRiYM0ABgJThSap8u7-34" value="&lt;font style=&quot;font-size: 28px; color: rgb(255, 255, 255);&quot;&gt;NN&lt;/font&gt;" style="rounded=1;whiteSpace=wrap;html=1;fillColor=light-dark(#00de6f, #a95100);strokeColor=#005700;fontColor=#ffffff;" vertex="1" parent="1">
          <mxGeometry x="590" y="1130" width="160" height="80" as="geometry" />
        </mxCell>
        <mxCell id="n8bRiYM0ABgJThSap8u7-35" value="&lt;font style=&quot;font-size: 28px; color: rgb(255, 255, 255);&quot;&gt;NN&lt;/font&gt;" style="rounded=1;whiteSpace=wrap;html=1;fillColor=light-dark(#00de6f, #a95100);strokeColor=#005700;fontColor=#ffffff;" vertex="1" parent="1">
          <mxGeometry x="810" y="1030" width="160" height="80" as="geometry" />
        </mxCell>
        <mxCell id="n8bRiYM0ABgJThSap8u7-36" value="&lt;font style=&quot;font-size: 28px; color: rgb(255, 255, 255);&quot;&gt;NN&lt;/font&gt;" style="rounded=1;whiteSpace=wrap;html=1;fillColor=light-dark(#00de6f, #a95100);strokeColor=#005700;fontColor=#ffffff;" vertex="1" parent="1">
          <mxGeometry x="810" y="1130" width="160" height="80" as="geometry" />
        </mxCell>
        <mxCell id="n8bRiYM0ABgJThSap8u7-37" value="&lt;font style=&quot;font-size: 28px; color: rgb(255, 255, 255);&quot;&gt;Fabreic&lt;/font&gt;" style="rounded=1;whiteSpace=wrap;html=1;fillColor=light-dark(#00de6f, #a95100);strokeColor=#005700;fontColor=#ffffff;rotation=90;" vertex="1" parent="1">
          <mxGeometry x="995" y="1065" width="180" height="110" as="geometry" />
        </mxCell>
      </root>
    </mxGraphModel>
  </diagram>
</mxfile>
